<svg width="72" height="14" viewBox="0 0 72 14" fill="none" xmlns="http://www.w3.org/2000/svg">
<path fill-rule="evenodd" clip-rule="evenodd" d="M11.4751 7.02948C11.4762 6.95178 11.4767 6.87455 11.4767 6.79786C11.4767 6.59733 11.4733 6.39048 11.465 6.17927H11.5377C11.5377 6.48232 11.5163 6.76572 11.4751 7.02948ZM11.4751 7.02948C11.437 9.7779 10.6741 13.1102 5.55559 13.1102C0.4386 13.1102 0 9.14981 0 6.36086C0 3.57191 0.438591 0 5.55559 0C10.4403 0 11.3583 3.45312 11.465 6.17927H10.5377C10.5377 7.20783 10.2493 7.82389 9.90404 8.17215C9.55871 8.52043 9.09978 8.65898 8.63712 8.62598C8.1668 8.59243 7.72726 8.38305 7.45115 8.08184C7.1874 7.79409 7.06938 7.42503 7.19886 6.99092C7.41078 6.28038 7.35837 5.64066 6.97358 5.18228C6.59913 4.73623 6.02048 4.59625 5.47847 4.62264C4.39964 4.67518 3.0965 5.3908 2.45667 6.61666C2.20389 7.10096 2.0003 7.24031 1.90432 7.27676C1.83477 7.30318 1.75555 7.3008 1.62945 7.22144C1.49396 7.13617 1.36112 6.9929 1.25332 6.84812C1.20208 6.7793 1.16174 6.71729 1.1347 6.6733C1.12127 6.65146 1.11137 6.63446 1.10529 6.62378L1.09912 6.61281L1.09885 6.61233C1.09894 6.61249 1.09903 6.61266 0.657881 6.84801C0.216737 7.08336 0.216836 7.08355 0.216939 7.08374L0.217169 7.08417L0.217709 7.08518L0.219113 7.08778L0.223208 7.09527L0.236472 7.11892C0.24753 7.13832 0.263059 7.16489 0.282783 7.19697C0.322053 7.26086 0.378918 7.34821 0.451247 7.44535C0.590591 7.63249 0.810378 7.88752 1.09681 8.06778C1.39262 8.25395 1.80462 8.38433 2.25939 8.2116C2.68775 8.04891 3.04159 7.65719 3.34318 7.07936C3.8121 6.18096 4.78844 5.65743 5.52711 5.62146C5.89385 5.6036 6.10844 5.70703 6.20767 5.82523C6.29655 5.93111 6.39823 6.1765 6.24057 6.70511C6.00047 7.51015 6.23741 8.23763 6.71399 8.75755C7.17822 9.264 7.86438 9.5734 8.56596 9.62344C9.2752 9.67403 10.0344 9.461 10.6142 8.87623C11.0492 8.43745 11.3514 7.8221 11.4751 7.02948Z" fill="white"/>
<path d="M19.7124 4.92871H20.8286V5.66699H19.7124V10H18.6665V5.66699H17.8403V4.92871H18.6665V3.39941H19.7124V4.92871ZM25.7593 4.99023C25.7593 5.29492 25.749 5.61279 25.7285 5.94385C25.708 6.27197 25.6685 6.61035 25.6099 6.95898H24.5464C24.5728 6.85938 24.5977 6.75098 24.6211 6.63379C24.6387 6.53418 24.6548 6.41846 24.6694 6.28662C24.687 6.15186 24.6958 6.00977 24.6958 5.86035C24.438 5.86621 24.2241 5.89111 24.0542 5.93506C23.8872 5.97607 23.748 6.02588 23.6367 6.08447C23.5254 6.14014 23.4346 6.19727 23.3643 6.25586C23.2939 6.31445 23.231 6.36133 23.1753 6.39648V10H22.0503V6.37012C22.0386 6.27637 22.0107 6.19727 21.9668 6.13281C21.9258 6.06836 21.8818 6.01562 21.835 5.97461C21.7822 5.9248 21.7222 5.88379 21.6548 5.85156L22.1206 4.99023C22.229 5.02832 22.3359 5.07959 22.4414 5.14404C22.5322 5.19971 22.6274 5.27148 22.7271 5.35938C22.8296 5.44434 22.9204 5.5498 22.9995 5.67578C23.1489 5.57324 23.2866 5.48682 23.4126 5.4165C23.5386 5.34326 23.6602 5.28174 23.7773 5.23193C23.8975 5.18213 24.0205 5.14404 24.1465 5.11768C24.2754 5.08838 24.416 5.06494 24.5684 5.04736C24.7236 5.02979 24.8965 5.01807 25.0869 5.01221C25.2803 5.00342 25.5044 4.99609 25.7593 4.99023ZM31.8501 8.20703C31.7769 8.14258 31.686 8.07959 31.5776 8.01807C31.4692 7.95654 31.3359 7.90234 31.1777 7.85547C31.0195 7.80566 30.8306 7.76611 30.6108 7.73682C30.394 7.70459 30.1392 7.68848 29.8462 7.68848C29.5854 7.68848 29.3379 7.69434 29.1035 7.70605C28.8721 7.71484 28.6685 7.74414 28.4927 7.79395C28.3169 7.84082 28.1777 7.91699 28.0752 8.02246C27.9727 8.12793 27.9214 8.27441 27.9214 8.46191V9.02441C28.1792 9.06543 28.4634 9.09912 28.7739 9.12549C29.0845 9.15186 29.4302 9.16504 29.811 9.16504C30.1157 9.16504 30.4395 9.15479 30.7822 9.13428C31.1279 9.11084 31.4839 9.06543 31.8501 8.99805V8.20703ZM29.8726 4.99023C30.019 4.99023 30.1963 4.99756 30.4043 5.01221C30.6123 5.02686 30.8291 5.05322 31.0547 5.09131C31.2803 5.12646 31.5029 5.17627 31.7227 5.24072C31.9453 5.30225 32.1445 5.38428 32.3203 5.48682C32.499 5.58643 32.6426 5.70654 32.751 5.84717C32.8594 5.98779 32.9136 6.15332 32.9136 6.34375V9.74512C32.6675 9.79492 32.3892 9.8374 32.0786 9.87256C31.812 9.90479 31.4941 9.93408 31.125 9.96045C30.7559 9.98682 30.3442 10 29.8901 10C29.439 10 28.9585 9.98096 28.4487 9.94287C27.9419 9.90479 27.4116 9.83887 26.8579 9.74512V8.16309C26.8579 7.99316 26.8975 7.84521 26.9766 7.71924C27.0586 7.59033 27.1699 7.48047 27.3105 7.38965C27.4512 7.29883 27.6167 7.22412 27.8071 7.16553C27.9976 7.10693 28.2026 7.06006 28.4224 7.0249C28.6421 6.98975 28.8706 6.96631 29.1079 6.95459C29.3452 6.93994 29.5825 6.93262 29.8198 6.93262C30.1802 6.93262 30.4863 6.95605 30.7383 7.00293C30.9932 7.04688 31.2041 7.09521 31.3711 7.14795C31.5645 7.2124 31.7241 7.28418 31.8501 7.36328V6.65137C31.8501 6.53125 31.8208 6.42871 31.7622 6.34375C31.7036 6.25586 31.6245 6.18262 31.5249 6.12402C31.4253 6.0625 31.311 6.01416 31.1821 5.979C31.0532 5.94092 30.9185 5.91162 30.7778 5.89111C30.6372 5.87061 30.4937 5.85742 30.3472 5.85156C30.2036 5.8457 30.0688 5.84277 29.9429 5.84277C29.811 5.84277 29.6704 5.84717 29.521 5.85596C29.3716 5.86182 29.2222 5.875 29.0728 5.89551C28.9263 5.91602 28.7842 5.94531 28.6465 5.9834C28.5117 6.01855 28.3916 6.06689 28.2861 6.12842C28.1807 6.18994 28.0957 6.26465 28.0312 6.35254C27.9697 6.4375 27.939 6.54004 27.939 6.66016L26.8491 6.37891C26.8491 6.18262 26.8975 6.0127 26.9941 5.86914C27.0908 5.72266 27.2183 5.59814 27.3765 5.49561C27.5376 5.39307 27.7222 5.30957 27.9302 5.24512C28.1382 5.17773 28.3535 5.12646 28.5762 5.09131C28.8018 5.05322 29.0259 5.02686 29.2485 5.01221C29.4712 4.99756 29.6792 4.99023 29.8726 4.99023ZM34.4429 6.37012C34.4312 6.27637 34.4033 6.19727 34.3594 6.13281C34.3184 6.06836 34.2729 6.01562 34.2231 5.97461C34.1675 5.9248 34.106 5.88379 34.0386 5.85156L34.5308 4.99023C34.6392 5.02832 34.7476 5.07959 34.856 5.14404C34.9468 5.19971 35.042 5.27148 35.1416 5.35938C35.2441 5.44434 35.3335 5.5498 35.4097 5.67578C35.5562 5.58203 35.7056 5.49414 35.8579 5.41211C36.0132 5.32715 36.1743 5.25391 36.3413 5.19238C36.5112 5.13086 36.6885 5.08252 36.873 5.04736C37.0605 5.00928 37.2612 4.99023 37.4751 4.99023C37.9263 4.99023 38.313 5.02832 38.6353 5.10449C38.9604 5.17773 39.2256 5.28906 39.4307 5.43848C39.6387 5.58496 39.791 5.76807 39.8877 5.98779C39.9844 6.20752 40.0327 6.46387 40.0327 6.75684V10H38.8813V7.0293C38.8813 6.86523 38.8594 6.72461 38.8154 6.60742C38.7715 6.4873 38.7114 6.38623 38.6353 6.3042C38.562 6.21924 38.4756 6.15039 38.376 6.09766C38.2764 6.04492 38.1724 6.00537 38.064 5.979C37.9585 5.94971 37.8501 5.93066 37.7388 5.92188C37.6274 5.91016 37.522 5.9043 37.4224 5.9043C37.2349 5.9043 37.0562 5.91748 36.8862 5.94385C36.7163 5.97021 36.5552 6.00684 36.4028 6.05371C36.2505 6.09766 36.1069 6.15039 35.9722 6.21191C35.8374 6.27344 35.7114 6.33789 35.5942 6.40527V10H34.4429V6.37012ZM44.1812 4.99023C44.4302 4.99023 44.6865 5.00049 44.9502 5.021C45.2168 5.03857 45.4731 5.06348 45.7192 5.0957C45.9653 5.125 46.1953 5.16016 46.4092 5.20117C46.626 5.24219 46.812 5.28613 46.9673 5.33301V11.6699H45.8159V9.69238C45.5493 9.78613 45.2739 9.86084 44.9897 9.9165C44.7085 9.97217 44.439 10 44.1812 10C43.73 10 43.3271 9.96924 42.9727 9.90771C42.6182 9.84326 42.3179 9.74512 42.0718 9.61328C41.8257 9.48145 41.6382 9.31445 41.5093 9.1123C41.3804 8.91016 41.3159 8.66992 41.3159 8.3916V6.59863C41.3159 6.32031 41.3804 6.08008 41.5093 5.87793C41.6382 5.67578 41.8257 5.50879 42.0718 5.37695C42.3179 5.24512 42.6182 5.14844 42.9727 5.08691C43.3271 5.02246 43.73 4.99023 44.1812 4.99023ZM44.4976 9.12109C44.644 9.12109 44.7788 9.11084 44.9019 9.09033C45.0278 9.06982 45.1436 9.04492 45.249 9.01562C45.3574 8.9834 45.457 8.94824 45.5479 8.91016C45.6416 8.86914 45.731 8.82812 45.8159 8.78711V6.03613C45.7368 6.00684 45.6445 5.979 45.5391 5.95264C45.4365 5.92334 45.3267 5.89844 45.2095 5.87793C45.0952 5.85449 44.9766 5.83691 44.8535 5.8252C44.7334 5.81348 44.6147 5.80762 44.4976 5.80762C44.2222 5.80762 43.9614 5.81494 43.7153 5.82959C43.4692 5.84424 43.2539 5.88379 43.0693 5.94824C42.8848 6.0127 42.7383 6.1123 42.6299 6.24707C42.5215 6.37891 42.4673 6.56348 42.4673 6.80078V8.09277C42.4673 8.24805 42.4922 8.38135 42.542 8.49268C42.5918 8.604 42.6606 8.69775 42.7485 8.77393C42.8394 8.8501 42.9463 8.91162 43.0693 8.9585C43.1953 9.00244 43.333 9.0376 43.4824 9.06396C43.6318 9.0874 43.7915 9.10352 43.9614 9.1123C44.1343 9.11816 44.313 9.12109 44.4976 9.12109ZM49.437 8.40918C49.437 8.54395 49.4854 8.65674 49.582 8.74756C49.6816 8.83838 49.8135 8.91309 49.9775 8.97168C50.1445 9.02734 50.3364 9.06836 50.5532 9.09473C50.77 9.11816 50.9956 9.12988 51.23 9.12988C51.4761 9.12988 51.7075 9.1167 51.9243 9.09033C52.1411 9.06104 52.3301 9.01855 52.4912 8.96289C52.6523 8.9043 52.7798 8.82959 52.8735 8.73877C52.9673 8.64795 53.0142 8.53809 53.0142 8.40918V4.99023L54.1831 5.07812V8.69043C54.1831 8.84863 54.1436 8.99365 54.0645 9.12549C53.9883 9.25732 53.8813 9.37598 53.7437 9.48145C53.606 9.58398 53.4434 9.67334 53.2559 9.74951C53.0684 9.82568 52.8647 9.88867 52.645 9.93848C52.4282 9.98828 52.1982 10.0249 51.9551 10.0483C51.7148 10.0747 51.4731 10.0879 51.23 10.0879C50.9839 10.0879 50.7407 10.0747 50.5005 10.0483C50.2603 10.0249 50.0303 9.98828 49.8105 9.93848C49.5938 9.88867 49.3916 9.82568 49.2041 9.74951C49.0166 9.67334 48.854 9.58398 48.7163 9.48145C48.5786 9.37598 48.4702 9.25879 48.3911 9.12988C48.3149 8.99805 48.2769 8.85156 48.2769 8.69043V5.07812L49.437 4.99023V8.40918ZM56.811 10H55.6948V4.99023H56.811V10ZM56.2573 3.25C56.4741 3.25 56.6455 3.28662 56.7715 3.35986C56.8975 3.43018 56.9604 3.54297 56.9604 3.69824V3.91797C56.9604 4.05859 56.8975 4.15967 56.7715 4.22119C56.6455 4.28271 56.4741 4.31348 56.2573 4.31348C56.0493 4.31348 55.8809 4.28271 55.752 4.22119C55.626 4.15967 55.563 4.05859 55.563 3.91797V3.69824C55.563 3.54297 55.626 3.43018 55.752 3.35986C55.8809 3.28662 56.0493 3.25 56.2573 3.25ZM59.6411 10H58.6392V3.39941H59.6411V10Z" fill="white"/>
</svg>
